<svg width="16" height="16" viewBox="0 0 16 16" fill="none" xmlns="http://www.w3.org/2000/svg">
<path d="M8.00002 8.86648C7.91124 8.86701 7.82391 8.84388 7.74702 8.79948L1.86202 5.39348C1.74718 5.32638 1.6637 5.21641 1.62995 5.08776C1.59619 4.95911 1.61492 4.82232 1.68202 4.70748C1.74912 4.59264 1.85909 4.50916 1.98774 4.47541C2.11639 4.44165 2.25318 4.46038 2.36802 4.52748L8.00002 7.78648L13.6 4.54748C13.7152 4.48184 13.8515 4.46393 13.9797 4.49757C14.108 4.53122 14.2179 4.61375 14.286 4.72748C14.3517 4.84266 14.3696 4.97896 14.3359 5.10719C14.3023 5.23542 14.2198 5.34537 14.106 5.41348L8.26002 8.79948C8.17922 8.84036 8.09051 8.86322 8.00002 8.86648Z" fill="#202532"/>
<path d="M8 14.9054C7.86739 14.9054 7.74021 14.8527 7.64645 14.7589C7.55268 14.6651 7.5 14.538 7.5 14.4054V8.36035C7.5 8.22774 7.55268 8.10057 7.64645 8.0068C7.74021 7.91303 7.86739 7.86035 8 7.86035C8.13261 7.86035 8.25979 7.91303 8.35355 8.0068C8.44732 8.10057 8.5 8.22774 8.5 8.36035V14.4054C8.5 14.538 8.44732 14.6651 8.35355 14.7589C8.25979 14.8527 8.13261 14.9054 8 14.9054Z" fill="#202532"/>
<path d="M7.99503 15.165C7.42998 15.1744 6.87137 15.0439 6.36903 14.785L2.81503 12.805C2.31151 12.4944 1.89156 12.0655 1.59177 11.5555C1.29198 11.0455 1.12145 10.4699 1.09503 9.87895V6.11395C1.12221 5.52314 1.29307 4.94788 1.59278 4.43801C1.8925 3.92814 2.31204 3.49906 2.81503 3.18795L6.37403 1.21495C6.8798 0.96499 7.43637 0.834961 8.00053 0.834961C8.56469 0.834961 9.12127 0.96499 9.62703 1.21495L13.185 3.19395C13.6886 3.50448 14.1085 3.93342 14.4083 4.44341C14.7081 4.9534 14.8786 5.52897 14.905 6.11995V9.88595C14.8779 10.4768 14.707 11.052 14.4073 11.5619C14.1076 12.0718 13.688 12.5008 13.185 12.812L9.62603 14.785C9.1222 15.0447 8.56177 15.1752 7.99503 15.165ZM7.99503 1.83495C7.60022 1.82641 7.20917 1.91319 6.85503 2.08795L3.30103 4.06795C2.95548 4.29393 2.66684 4.59671 2.45763 4.95267C2.24843 5.30862 2.12433 5.70811 2.09503 6.11995V9.88595C2.12561 10.2971 2.25026 10.6956 2.45937 11.0509C2.66848 11.4062 2.95644 11.7087 3.30103 11.935L6.86003 13.915C7.21646 14.0828 7.60557 14.1698 7.99953 14.1698C8.3935 14.1698 8.7826 14.0828 9.13903 13.915L12.695 11.935C13.0409 11.7097 13.3301 11.4076 13.54 11.0522C13.7499 10.6967 13.8748 10.2976 13.905 9.88595V6.11995C13.8745 5.70797 13.7494 5.30857 13.5396 4.95271C13.3297 4.59685 13.0407 4.29411 12.695 4.06795L9.14003 2.08795C8.78439 1.91241 8.39153 1.8256 7.99503 1.83495Z" fill="#202532"/>
<path d="M11.332 9.32713C11.1994 9.32713 11.0722 9.27445 10.9785 9.18068C10.8847 9.08691 10.832 8.95973 10.832 8.82713V6.68113L4.75402 3.17513C4.6405 3.10834 4.55792 2.99945 4.52422 2.87213C4.49051 2.74481 4.50841 2.60933 4.57402 2.49513C4.60642 2.43822 4.64984 2.38834 4.70173 2.34841C4.75363 2.30847 4.81296 2.27927 4.87626 2.26251C4.93957 2.24575 5.00558 2.24177 5.07043 2.25081C5.13529 2.25984 5.1977 2.28171 5.25402 2.31513L11.579 5.96713C11.6556 6.01063 11.7193 6.07358 11.7637 6.14961C11.8082 6.22565 11.8317 6.31207 11.832 6.40013V8.84013C11.8286 8.97047 11.7745 9.09433 11.6811 9.18531C11.5876 9.27628 11.4624 9.32717 11.332 9.32713Z" fill="#202532"/>
</svg>
