<svg width="15" height="12" viewBox="0 0 15 12" fill="none" xmlns="http://www.w3.org/2000/svg">
<path d="M12.7654 0.75004C12.3705 0.779251 12.003 0.962833 11.7424 1.26104L6.0594 7.56104L2.9344 4.83904C2.73534 4.65351 2.48956 4.52563 2.22339 4.46908C1.95722 4.41254 1.68069 4.42946 1.4234 4.51804C1.16543 4.60959 0.936666 4.76849 0.760826 4.97827C0.584987 5.18805 0.468481 5.44105 0.423396 5.71104C0.375804 5.98171 0.400797 6.26016 0.49583 6.51803C0.590863 6.7759 0.75254 7.00398 0.964396 7.17904L5.2074 10.879C5.50447 11.138 5.89151 11.2696 6.28484 11.2454C6.67817 11.2213 7.04621 11.0433 7.3094 10.75L13.9774 3.35004C14.1884 3.123 14.3271 2.83826 14.3757 2.53212C14.4243 2.22598 14.3807 1.91229 14.2504 1.63104C14.1224 1.35017 13.9115 1.11521 13.646 0.957718C13.3806 0.800228 13.0733 0.727757 12.7654 0.75004Z" fill="#03384E"/>
</svg>
