<svg width="16" height="16" viewBox="0 0 16 16" fill="none" xmlns="http://www.w3.org/2000/svg">
<path d="M10.019 8.63593H5.31C5.17666 8.63383 5.04949 8.57938 4.95595 8.48434C4.8624 8.3893 4.80998 8.26128 4.81 8.12793C4.81206 7.99596 4.8654 7.86998 4.95873 7.77666C5.05205 7.68333 5.17803 7.62999 5.31 7.62793H10.01C10.142 7.62999 10.2679 7.68333 10.3613 7.77666C10.4546 7.86998 10.5079 7.99596 10.51 8.12793C10.5101 8.25977 10.4589 8.38647 10.3673 8.48126C10.2756 8.57606 10.1508 8.63152 10.019 8.63593Z" fill="white"/>
<path d="M8.26697 11.301H5.31897C5.18563 11.2989 5.05847 11.2444 4.96492 11.1494C4.87137 11.0543 4.81895 10.9263 4.81897 10.793C4.82103 10.661 4.87437 10.535 4.9677 10.4417C5.06102 10.3484 5.187 10.295 5.31897 10.293H8.26697C8.39893 10.295 8.52492 10.3484 8.61824 10.4417C8.71157 10.535 8.76491 10.661 8.76697 10.793C8.76699 10.9263 8.71456 11.0543 8.62102 11.1494C8.52747 11.2444 8.40031 11.2989 8.26697 11.301Z" fill="white"/>
<path d="M9.34199 4.54082H6.65299C6.00499 4.54082 4.80499 4.54082 4.80499 2.68882C4.80499 0.83682 6.00499 0.84082 6.65299 0.84082H9.34199C9.98699 0.84082 11.19 0.84082 11.19 2.68882C11.19 3.33482 11.19 4.54082 9.34199 4.54082ZM6.65299 1.84882C5.98799 1.84882 5.81299 1.84882 5.81299 2.68882C5.81299 3.52882 5.98799 3.52882 6.65299 3.52882H9.34199C10.182 3.52882 10.182 3.35382 10.182 2.68882C10.182 1.84882 10.007 1.84882 9.34199 1.84882H6.65299Z" fill="white"/>
<path d="M9.99302 15.1569H6.00202C2.26402 15.1569 1.51202 13.4399 1.51202 10.6659V6.67493C1.51202 3.64193 2.61202 2.34493 5.31202 2.20493C5.44418 2.19839 5.57353 2.2445 5.67175 2.33316C5.76997 2.42182 5.82904 2.5458 5.83602 2.67793C5.83966 2.74325 5.83025 2.80865 5.80835 2.8703C5.78646 2.93196 5.7525 2.98864 5.70848 3.03703C5.66445 3.08543 5.61124 3.12459 5.55193 3.15221C5.49262 3.17983 5.4284 3.19537 5.36302 3.19793C3.47402 3.29793 2.51202 3.86793 2.51202 6.67493V10.6659C2.51202 13.1269 2.99802 14.1579 6.00402 14.1579H9.99302C13 14.1579 13.485 13.1269 13.485 10.6659V6.67493C13.486 3.86793 12.521 3.29793 10.632 3.19793C10.5664 3.19435 10.5022 3.17787 10.4429 3.14945C10.3837 3.12102 10.3306 3.0812 10.2868 3.03225C10.243 2.98331 10.2092 2.92621 10.1875 2.86421C10.1657 2.80221 10.1564 2.73653 10.16 2.67093C10.167 2.53861 10.2262 2.41448 10.3247 2.3258C10.4231 2.23711 10.5527 2.19112 10.685 2.19793C13.385 2.34393 14.485 3.64093 14.485 6.66793V10.6599C14.483 13.4399 13.732 15.1569 9.99302 15.1569Z" fill="white"/>
</svg>
