<svg width="24" height="24" viewBox="0 0 24 24" fill="none" xmlns="http://www.w3.org/2000/svg">
<path fill-rule="evenodd" clip-rule="evenodd" d="M8.48263 1.43677C7.31588 1.28757 6.13548 1.76469 4.93605 2.89324L4.93467 2.89454C3.73124 4.03263 3.18338 5.18713 3.26558 6.36301C3.345 7.49926 4.00371 8.46097 4.75483 9.25452M4.75483 9.25452L12.9608 17.9402C13.1921 18.1921 13.5036 18.4055 13.7989 18.5634C14.098 18.7233 14.4439 18.8601 14.7687 18.9179L14.7737 18.9188L17.9926 19.4686C18.7731 19.6031 19.5216 19.4081 20.0548 18.9024C20.5873 18.3975 20.8226 17.6611 20.7354 16.8766L20.7352 16.8744L20.3636 13.6203C20.3204 13.2966 20.2002 12.9463 20.0585 12.6425C19.9173 12.3397 19.7246 12.0186 19.4966 11.776L19.4952 11.7744L11.2852 3.0844C10.5336 2.29053 9.6101 1.58094 8.48263 1.43677M10.1953 4.11507C10.1955 4.1152 10.1952 4.11494 10.1953 4.11507L18.4034 12.803C18.4035 12.8031 18.4032 12.8028 18.4034 12.803C18.4853 12.8904 18.5979 13.0597 18.699 13.2764C18.7983 13.4893 18.8579 13.6862 18.8758 13.8128L19.2446 17.0423C19.2446 17.0426 19.2447 17.043 19.2447 17.0433C19.2872 17.4282 19.1676 17.6766 19.0227 17.814C18.8784 17.9509 18.6269 18.0558 18.2474 17.9904L18.2463 17.9902L15.0292 17.4407C14.9039 17.418 14.7109 17.35 14.5061 17.2406C14.2985 17.1296 14.1424 17.0099 14.0642 16.9241L14.0553 16.9143L5.84517 8.2244C5.1765 7.51806 4.80498 6.8744 4.76192 6.25841C4.72163 5.68195 4.95863 4.9367 5.96451 3.98515C6.9648 3.04416 7.71922 2.85136 8.29237 2.92465C8.90479 3.00297 9.52702 3.40919 10.1953 4.11507Z" fill="#202532"/>
<path fill-rule="evenodd" clip-rule="evenodd" d="M12.2255 4.3084C11.8162 4.24464 11.4327 4.52473 11.3689 4.93401C10.9918 7.35463 9.02729 9.20723 6.58484 9.45324C6.17271 9.49475 5.87227 9.86249 5.91378 10.2746C5.95529 10.6867 6.32303 10.9872 6.73516 10.9457C9.85271 10.6317 12.3682 8.2643 12.8511 5.16492C12.9148 4.75564 12.6347 4.37217 12.2255 4.3084Z" fill="#202532"/>
<path fill-rule="evenodd" clip-rule="evenodd" d="M21.75 21.9995C21.75 21.5852 21.4142 21.2495 21 21.2495H3C2.58579 21.2495 2.25 21.5852 2.25 21.9995C2.25 22.4137 2.58579 22.7495 3 22.7495H21C21.4142 22.7495 21.75 22.4137 21.75 21.9995Z" fill="#202532"/>
</svg>
