<svg width="24" height="24" viewBox="0 0 24 24" fill="none" xmlns="http://www.w3.org/2000/svg">
<path fill-rule="evenodd" clip-rule="evenodd" d="M22.5303 1.46967C22.8232 1.76256 22.8232 2.23744 22.5303 2.53033L2.53033 22.5303C2.23744 22.8232 1.76256 22.8232 1.46967 22.5303C1.17678 22.2374 1.17678 21.7626 1.46967 21.4697L9.09277 13.8466L6.22472 10.8108C6.14546 10.7543 6.07733 10.6826 6.02493 10.5994L4.75537 9.25558C4.75526 9.25546 4.75548 9.2557 4.75537 9.25558C4.00418 8.46199 3.34503 7.49987 3.2656 6.36352C3.18341 5.18764 3.73127 4.03314 4.9347 2.89505L4.93608 2.89375C6.1355 1.7652 7.31591 1.28808 8.48266 1.43728C9.61012 1.58145 10.5331 2.29049 11.2847 3.08437L12.6511 4.53066C12.6536 4.53327 12.6561 4.53589 12.6585 4.53852L15.4481 7.49122L21.4697 1.46967C21.7626 1.17678 22.2374 1.17678 22.5303 1.46967ZM14.387 8.55231L12.4879 6.54218C11.7455 8.50383 10.1399 10.0197 8.1415 10.6555L10.1539 12.7855L14.387 8.55231ZM6.95836 9.40315C9.10811 9.0355 10.825 7.41157 11.302 5.28693L10.1954 4.11558C10.1953 4.11546 10.1955 4.11569 10.1954 4.11558C9.52703 3.40967 8.90483 3.00348 8.2924 2.92516C7.71928 2.85188 6.96491 3.04465 5.96469 3.98552C4.95868 4.93713 4.72165 5.68243 4.76195 6.25892C4.80501 6.87491 5.17601 7.51802 5.84468 8.22437L6.95836 9.40315ZM17.4087 10.6585C17.7098 10.3741 18.1845 10.3876 18.469 10.6887L19.4967 11.7765C19.7246 12.0192 19.9173 12.3402 20.0585 12.643C20.2002 12.9469 20.3203 13.2972 20.3634 13.6208L20.3653 13.6349L20.7354 16.8771C20.8226 17.6616 20.5873 18.398 20.0549 18.9029C19.5217 19.4086 18.7732 19.6036 17.9926 19.4691L14.7737 18.9193L14.7688 18.9184C14.444 18.8607 14.098 18.7238 13.7989 18.5639C13.5036 18.406 13.1921 18.1926 12.9608 17.9407L11.9386 16.8588C11.6541 16.5577 11.6676 16.083 11.9687 15.7986C12.2698 15.5141 12.7445 15.5276 13.0289 15.8287L14.0643 16.9246C14.1425 17.0103 14.2986 17.1301 14.5061 17.2411C14.7109 17.3505 14.9039 17.4185 15.0292 17.4412C15.0299 17.4413 15.0306 17.4414 15.0313 17.4416L18.2463 17.9907L18.2475 17.9909C18.6269 18.0563 18.8784 17.9514 19.0227 17.8145C19.1676 17.6771 19.2872 17.4288 19.2447 17.0439C19.2447 17.0435 19.2447 17.0432 19.2446 17.0428L18.8758 13.8133C18.8579 13.6867 18.7983 13.4898 18.6991 13.277C18.598 13.0602 18.4859 12.8915 18.4039 12.8041C18.4038 12.8039 18.4041 12.8043 18.4039 12.8041L17.3786 11.7188C17.0941 11.4177 17.1076 10.943 17.4087 10.6585ZM6 21.25H21C21.4142 21.25 21.75 21.5858 21.75 22C21.75 22.4142 21.4142 22.75 21 22.75H6C5.58579 22.75 5.25 22.4142 5.25 22C5.25 21.5858 5.58579 21.25 6 21.25Z" fill="#BFBFBF"/>
</svg>
