<svg width="16" height="16" viewBox="0 0 16 16" fill="none" xmlns="http://www.w3.org/2000/svg">
<path d="M10.1733 14.8334H5.82665C2.55332 14.8334 1.15332 13.4334 1.15332 10.1601V10.0734C1.15332 7.1134 2.31999 5.68673 4.93332 5.43873C5.06523 5.4296 5.19559 5.4716 5.29737 5.556C5.39915 5.6404 5.46454 5.76074 5.47999 5.89206C5.48632 5.95776 5.4796 6.02406 5.46021 6.08715C5.44082 6.15024 5.40915 6.20888 5.36702 6.25968C5.32489 6.31049 5.27313 6.35246 5.21471 6.38319C5.1563 6.41392 5.09239 6.43279 5.02665 6.43873C2.93332 6.63206 2.15332 7.61873 2.15332 10.0787V10.1654C2.15332 12.8787 3.11332 13.8387 5.82665 13.8387H10.1733C12.8867 13.8387 13.8467 12.8787 13.8467 10.1654V10.0787C13.8467 7.6054 13.0533 6.61873 10.92 6.43873C10.8537 6.43437 10.789 6.41683 10.7297 6.38714C10.6703 6.35745 10.6175 6.3162 10.5742 6.26582C10.531 6.21543 10.4983 6.15693 10.478 6.09373C10.4577 6.03054 10.4502 5.96392 10.456 5.89779C10.4617 5.83167 10.4806 5.76735 10.5116 5.70863C10.5425 5.64991 10.5849 5.59796 10.6362 5.55582C10.6875 5.51368 10.7467 5.48221 10.8103 5.46325C10.8739 5.44429 10.9407 5.43822 11.0067 5.44539C13.66 5.67206 14.8467 7.1054 14.8467 10.0854V10.1721C14.8467 13.4334 13.4467 14.8334 10.1733 14.8334Z" fill="#202532"/>
<path d="M8 10.5007C7.86766 10.4999 7.74099 10.4469 7.64741 10.3533C7.55383 10.2597 7.50087 10.1331 7.5 10.0007V2.41406C7.50087 2.28172 7.55383 2.15505 7.64741 2.06147C7.74099 1.96789 7.86766 1.91494 8 1.91406C8.13234 1.91494 8.25901 1.96789 8.35259 2.06147C8.44617 2.15505 8.49913 2.28172 8.5 2.41406V10.0007C8.49913 10.1331 8.44617 10.2597 8.35259 10.3533C8.25901 10.4469 8.13234 10.4999 8 10.5007Z" fill="#202532"/>
<path d="M10.234 4.3991C10.1683 4.39934 10.1032 4.38649 10.0426 4.36131C9.98191 4.33613 9.92686 4.29912 9.88066 4.25244L8.00199 2.37244L6.12199 4.25244C6.02721 4.34076 5.90184 4.38884 5.77231 4.38655C5.64277 4.38427 5.51918 4.33179 5.42757 4.24018C5.33597 4.14858 5.28349 4.02499 5.28121 3.89545C5.27892 3.76592 5.327 3.64055 5.41532 3.54577L7.64732 1.3131C7.74141 1.22012 7.86837 1.16797 8.00066 1.16797C8.13294 1.16797 8.2599 1.22012 8.35399 1.3131L10.5873 3.54644C10.6803 3.64053 10.7325 3.76748 10.7325 3.89977C10.7325 4.03206 10.6803 4.15901 10.5873 4.2531C10.5415 4.30019 10.4865 4.33742 10.4257 4.36252C10.365 4.38763 10.2997 4.40007 10.234 4.3991Z" fill="#202532"/>
</svg>
