<svg width="16" height="16" viewBox="0 0 16 16" fill="none" xmlns="http://www.w3.org/2000/svg">
<path d="M10 15.166H6.00001C2.38001 15.166 0.833008 13.62 0.833008 10V6.00001C0.833008 2.38001 2.38001 0.833008 6.00001 0.833008H10C13.62 0.833008 15.167 2.38001 15.167 6.00001V10C15.166 13.62 13.62 15.166 10 15.166ZM6.00001 1.83301C2.92601 1.83301 1.83301 2.92601 1.83301 6.00001V10C1.83301 13.073 2.92601 14.167 6.00001 14.167H10C13.073 14.167 14.167 13.074 14.167 10V6.00001C14.166 2.92601 13.073 1.83301 10 1.83301H6.00001Z" fill="#202532"/>
<path d="M6.00002 7.16693C5.54518 7.16693 5.1066 6.99773 4.76962 6.69225C4.43263 6.38677 4.22133 5.96685 4.17683 5.51419C4.13232 5.06154 4.25779 4.60851 4.52883 4.24325C4.79987 3.87798 5.19709 3.62661 5.64322 3.53802C6.08935 3.44943 6.55248 3.52997 6.94251 3.76396C7.33254 3.99795 7.62159 4.36867 7.75341 4.80399C7.88523 5.23931 7.8504 5.70809 7.6557 6.11915C7.461 6.53021 7.12035 6.85415 6.70002 7.02793C6.47804 7.11968 6.2402 7.16691 6.00002 7.16693ZM6.00002 4.49993C5.8073 4.49993 5.62054 4.56674 5.47156 4.68899C5.32258 4.81125 5.2206 4.98137 5.18299 5.17039C5.14538 5.3594 5.17448 5.55561 5.26532 5.72558C5.35616 5.89554 5.50312 6.02876 5.68117 6.10251C5.85922 6.17627 6.05733 6.18601 6.24175 6.13008C6.42618 6.07414 6.5855 5.95599 6.69257 5.79575C6.79965 5.63551 6.84785 5.44311 6.82897 5.25132C6.81008 5.05952 6.72528 4.88021 6.58902 4.74393C6.43281 4.58771 6.22094 4.49995 6.00002 4.49993Z" fill="#202532"/>
<path d="M1.78199 13.1328C1.67589 13.1309 1.57313 13.0954 1.48858 13.0313C1.40403 12.9671 1.34207 12.8778 1.31167 12.7761C1.28127 12.6744 1.284 12.5657 1.31947 12.4657C1.35495 12.3657 1.42132 12.2796 1.50899 12.2198L4.79299 10.0128C5.14909 9.77763 5.5713 9.66305 5.99743 9.68591C6.42357 9.70877 6.83109 9.86788 7.15999 10.1398L7.37999 10.3328C7.55412 10.4721 7.77048 10.548 7.99349 10.548C8.21649 10.548 8.43286 10.4721 8.60699 10.3328L11.382 7.9528C11.7386 7.65882 12.1863 7.49805 12.6485 7.49805C13.1106 7.49805 13.5584 7.65882 13.915 7.9528L15.002 8.8858C15.1028 8.97239 15.165 9.09547 15.1751 9.22797C15.1851 9.36046 15.1421 9.49152 15.0555 9.5923C14.9689 9.69308 14.8458 9.75534 14.7133 9.76537C14.5808 9.7754 14.4498 9.73239 14.349 9.6458L13.262 8.7128C13.0866 8.57368 12.8693 8.49797 12.6455 8.49797C12.4216 8.49797 12.2044 8.57368 12.029 8.7128L9.25299 11.0928C8.89639 11.3868 8.44864 11.5476 7.98649 11.5476C7.52434 11.5476 7.07658 11.3868 6.71999 11.0928L6.49999 10.8978C6.33741 10.7696 6.13879 10.6956 5.932 10.6861C5.72521 10.6766 5.52063 10.7321 5.34699 10.8448L2.05999 13.0528C1.9757 13.1045 1.87887 13.1322 1.77999 13.1328H1.78199Z" fill="#202532"/>
</svg>
