<svg width="17" height="20" viewBox="0 0 17 20" fill="none" xmlns="http://www.w3.org/2000/svg">
<path d="M7.52605 17.1867C5.58035 17.1888 3.6471 16.8764 1.80105 16.2617C1.46898 16.1574 1.16467 15.9796 0.910706 15.7416C0.656743 15.5035 0.459649 15.2113 0.334051 14.8867C0.216494 14.5611 0.175638 14.2128 0.214663 13.8689C0.253687 13.525 0.37154 13.1947 0.559051 12.9037L1.51705 11.3117C1.74369 10.8808 1.87435 10.4059 1.90005 9.91972V7.51172C1.90005 6.01988 2.49268 4.58914 3.54758 3.53424C4.60247 2.47935 6.03321 1.88672 7.52505 1.88672C9.01689 1.88672 10.4476 2.47935 11.5025 3.53424C12.5574 4.58914 13.1501 6.01988 13.1501 7.51172V9.92072C13.1773 10.409 13.3072 10.886 13.5311 11.3207L14.4811 12.9037C14.6578 13.1996 14.766 13.5313 14.7976 13.8744C14.8293 14.2176 14.7837 14.5635 14.6641 14.8867C14.5461 15.2088 14.3565 15.4999 14.1097 15.7381C13.8629 15.9763 13.5652 16.1553 13.2391 16.2617C11.3969 16.8768 9.46719 17.1892 7.52505 17.1867H7.52605ZM7.52605 3.13672C6.36614 3.13804 5.25411 3.5994 4.43392 4.41959C3.61374 5.23977 3.15237 6.3518 3.15105 7.51172V9.92072C3.1214 10.6319 2.9306 11.327 2.59305 11.9537L1.63505 13.5457C1.5458 13.6773 1.48801 13.8276 1.46616 13.985C1.44431 14.1425 1.45898 14.3028 1.50905 14.4537C1.56973 14.6025 1.66363 14.7355 1.78357 14.8424C1.9035 14.9493 2.0463 15.0274 2.20105 15.0707C5.65796 16.2372 9.40214 16.2372 12.8591 15.0707C13.0066 15.0224 13.1412 14.941 13.2525 14.8326C13.3638 14.7243 13.4488 14.592 13.5011 14.4457C13.556 14.2992 13.577 14.1421 13.5626 13.9862C13.5483 13.8304 13.4988 13.6798 13.4181 13.5457L12.4601 11.9537C12.1206 11.3246 11.9297 10.6261 11.9021 9.91172V7.51172C11.9022 6.93715 11.7891 6.36818 11.5693 5.83732C11.3495 5.30646 11.0272 4.82412 10.6209 4.41783C10.2147 4.01155 9.73231 3.6893 9.20145 3.46948C8.67059 3.24966 8.10162 3.13659 7.52705 3.13672H7.52605Z" fill="#202532"/>
<path d="M9.07604 3.36225C9.01682 3.36214 8.95791 3.35372 8.90104 3.33725C8.67097 3.27307 8.4372 3.22298 8.20104 3.18725C7.52037 3.09336 6.82755 3.14448 6.16804 3.33725C6.0559 3.3722 5.93613 3.37457 5.82269 3.3441C5.70926 3.31362 5.60681 3.25155 5.52728 3.1651C5.44775 3.07866 5.39441 2.9714 5.37348 2.85582C5.35255 2.74024 5.36488 2.62109 5.40904 2.51225C5.57464 2.08369 5.86607 1.71529 6.24499 1.45549C6.62392 1.19568 7.0726 1.05664 7.53204 1.05664C7.99147 1.05664 8.44015 1.19568 8.81908 1.45549C9.198 1.71529 9.48943 2.08369 9.65504 2.51225C9.69692 2.62092 9.70815 2.739 9.68752 2.85362C9.66689 2.96824 9.61518 3.075 9.53804 3.16225C9.47841 3.2249 9.40677 3.2749 9.32739 3.30926C9.24801 3.34362 9.16253 3.36164 9.07604 3.36225Z" fill="#202532"/>
<path d="M7.52606 19.0869C6.69767 19.0856 5.90358 18.7559 5.31781 18.1702C4.73205 17.5844 4.40238 16.7903 4.40106 15.9619H5.65106C5.65106 16.4592 5.84861 16.9361 6.20024 17.2877C6.55187 17.6394 7.02878 17.8369 7.52606 17.8369C8.02334 17.8369 8.50026 17.6394 8.85189 17.2877C9.20352 16.9361 9.40106 16.4592 9.40106 15.9619H10.6511C10.6508 16.7906 10.3215 17.5853 9.73548 18.1713C9.14948 18.7573 8.35478 19.0866 7.52606 19.0869Z" fill="#202532"/>
<path d="M13.5011 7.4985C12.8893 7.4985 12.2913 7.3171 11.7827 6.97724C11.274 6.63737 10.8776 6.15431 10.6435 5.58914C10.4094 5.02397 10.3481 4.40207 10.4675 3.80209C10.5868 3.2021 10.8814 2.65098 11.314 2.21842C11.7465 1.78586 12.2977 1.49128 12.8976 1.37193C13.4976 1.25259 14.1195 1.31384 14.6847 1.54794C15.2499 1.78204 15.7329 2.17848 16.0728 2.68712C16.4127 3.19576 16.5941 3.79376 16.5941 4.4055C16.5922 5.22525 16.2657 6.01089 15.6861 6.59054C15.1064 7.17019 14.3208 7.49665 13.5011 7.4985Z" fill="#E41A15"/>
<path d="M13.5021 1.71113C12.9692 1.71113 12.4484 1.86913 12.0054 2.16515C11.5623 2.46117 11.217 2.88192 11.0131 3.37418C10.8092 3.86645 10.7559 4.40812 10.8598 4.93071C10.9638 5.45329 11.2204 5.93332 11.5971 6.31008C11.9739 6.68684 12.4539 6.94342 12.9765 7.04737C13.4991 7.15132 14.0407 7.09797 14.533 6.89406C15.0253 6.69016 15.446 6.34487 15.742 5.90184C16.0381 5.45881 16.1961 4.93796 16.1961 4.40513C16.1961 4.05135 16.1264 3.70103 15.991 3.37418C15.8556 3.04733 15.6572 2.75035 15.407 2.50019C15.1568 2.25003 14.8599 2.05159 14.533 1.9162C14.2062 1.78082 13.8558 1.71113 13.5021 1.71113ZM13.5021 0.911133C14.1926 0.911331 14.8676 1.11625 15.4416 1.49999C16.0157 1.88373 16.4631 2.42905 16.7273 3.06703C16.9916 3.70501 17.0607 4.407 16.926 5.08427C16.7913 5.76153 16.4588 6.38365 15.9706 6.872C15.4824 7.36034 14.8604 7.69298 14.1832 7.82786C13.506 7.96275 12.8039 7.89382 12.1659 7.6298C11.5278 7.36577 10.9824 6.91851 10.5985 6.34453C10.2146 5.77056 10.0095 5.09566 10.0091 4.40513C10.0109 3.4793 10.3795 2.59192 11.0342 1.93725C11.6888 1.28259 12.5762 0.913983 13.5021 0.912133V0.911133Z" fill="white"/>
</svg>
