<svg width="16" height="16" viewBox="0 0 16 16" fill="none" xmlns="http://www.w3.org/2000/svg">
<path d="M9.79998 15.1671H6.19999C2.90665 15.1671 1.50665 13.7605 1.50665 10.4738V7.48047C1.50753 7.34813 1.56049 7.22146 1.65406 7.12788C1.74764 7.0343 1.87431 6.98134 2.00665 6.98047C2.13899 6.98134 2.26566 7.0343 2.35924 7.12788C2.45282 7.22146 2.50578 7.34813 2.50665 7.48047V10.4738C2.50665 13.2005 3.47332 14.1671 6.19999 14.1671H9.79332C12.52 14.1671 13.4867 13.2005 13.4867 10.4738V7.48047C13.4867 7.34786 13.5393 7.22068 13.6331 7.12692C13.7269 7.03315 13.854 6.98047 13.9867 6.98047C14.1193 6.98047 14.2464 7.03315 14.3402 7.12692C14.434 7.22068 14.4867 7.34786 14.4867 7.48047V10.4738C14.4933 13.7605 13.0867 15.1671 9.79998 15.1671Z" fill="#202532"/>
<path d="M8.00002 8.49968C7.64763 8.506 7.29798 8.43673 6.97462 8.29653C6.65125 8.15633 6.36169 7.94847 6.12542 7.68694C5.88916 7.42541 5.71169 7.11628 5.60496 6.78039C5.49823 6.44449 5.46472 6.08962 5.50669 5.73968L5.95335 1.28635C5.96617 1.16244 6.0243 1.04764 6.11658 0.963971C6.20886 0.880303 6.32879 0.833666 6.45335 0.833013H9.56669C9.69159 0.832467 9.81218 0.878693 9.90471 0.962591C9.99725 1.04649 10.055 1.16198 10.0667 1.28635L10.5134 5.73968C10.5533 6.08954 10.5188 6.4439 10.4119 6.77943C10.305 7.11496 10.1283 7.42405 9.89335 7.68635C9.65154 7.94595 9.35831 8.15235 9.03233 8.29238C8.70635 8.43241 8.35479 8.50301 8.00002 8.49968ZM6.90002 1.83301L6.50002 5.83968C6.4742 6.05008 6.49354 6.26357 6.55677 6.4659C6.62 6.66823 6.72566 6.85475 6.86669 7.01301C7.01533 7.16218 7.19196 7.28053 7.38644 7.36128C7.58093 7.44204 7.78944 7.48361 8.00002 7.48361C8.2106 7.48361 8.41911 7.44204 8.6136 7.36128C8.80808 7.28053 8.98471 7.16218 9.13335 7.01301C9.27355 6.85422 9.37867 6.66764 9.44186 6.46546C9.50504 6.26328 9.52486 6.05004 9.50002 5.83968L9.10002 1.83301H6.90002Z" fill="#202532"/>
<path d="M12.2067 8.4997C11.5379 8.48691 10.8962 8.23298 10.3997 7.78465C9.90323 7.33632 9.5854 6.72376 9.50469 6.0597L9.03803 1.38637C9.03202 1.31655 9.04034 1.24625 9.06246 1.17976C9.08458 1.11327 9.12005 1.052 9.16669 0.999701C9.21325 0.946678 9.27071 0.904335 9.33515 0.87557C9.39958 0.846805 9.46947 0.832296 9.54003 0.833035H11.5714C13.5314 0.833035 14.4447 1.65303 14.718 3.66637L14.9047 5.5197C14.9483 5.89788 14.9107 6.28101 14.7943 6.64347C14.6779 7.00593 14.4855 7.33936 14.2299 7.62147C13.9743 7.90358 13.6614 8.12786 13.3122 8.27932C12.9629 8.43077 12.5853 8.50591 12.2047 8.4997H12.2067ZM10.0934 1.83303L10.5047 5.9597C10.5595 6.37659 10.7609 6.7604 11.0727 7.04252C11.3844 7.32463 11.7864 7.48668 12.2067 7.4997C12.4481 7.5075 12.6882 7.46275 12.9106 7.36855C13.133 7.27436 13.3322 7.13296 13.4945 6.95415C13.6569 6.77535 13.7784 6.5634 13.8507 6.33299C13.923 6.10257 13.9444 5.85919 13.9134 5.6197L13.7267 3.78637C13.52 2.2797 13.0334 1.83303 11.5714 1.83303H10.0934Z" fill="#202532"/>
<path d="M3.7599 8.49967C3.37927 8.50588 3.0017 8.43075 2.65245 8.27929C2.30319 8.12784 1.99029 7.90355 1.73469 7.62144C1.47909 7.33933 1.28667 7.0059 1.1703 6.64344C1.05393 6.28098 1.01629 5.89785 1.0599 5.51967L1.2399 3.68634C1.5199 1.65301 2.43324 0.833008 4.39324 0.833008H6.42657C6.49692 0.833613 6.56638 0.848727 6.63062 0.877404C6.69486 0.906082 6.75249 0.947707 6.7999 0.999674C6.84752 1.05127 6.88348 1.1125 6.90533 1.17922C6.92719 1.24594 6.93443 1.31658 6.92657 1.38634L6.4599 6.05967C6.37925 6.7234 6.0617 7.33569 5.56565 7.78398C5.06959 8.23227 4.42838 8.48641 3.7599 8.49967ZM4.39324 1.83301C2.93324 1.83301 2.44657 2.27301 2.23324 3.79967L2.05324 5.61967C2.0222 5.85917 2.04358 6.10254 2.1159 6.33296C2.18821 6.56337 2.30974 6.77532 2.47206 6.95413C2.63438 7.13293 2.83362 7.27433 3.05599 7.36853C3.27835 7.46273 3.51853 7.50747 3.7599 7.49967C4.18017 7.48726 4.58222 7.32537 4.89383 7.04309C5.20543 6.76082 5.40614 6.37667 5.4599 5.95967L5.87324 1.83301H4.39324Z" fill="#202532"/>
<path d="M9.66665 15.167H6.33331C6.20097 15.1661 6.0743 15.1132 5.98072 15.0196C5.88714 14.926 5.83419 14.7993 5.83331 14.667V13.0003C5.79887 12.7075 5.83121 12.4107 5.92792 12.1321C6.02462 11.8536 6.18318 11.6005 6.39167 11.392C6.60017 11.1835 6.8532 11.025 7.13175 10.9283C7.4103 10.8316 7.70714 10.7992 7.99998 10.8337C8.29282 10.7992 8.58966 10.8316 8.86821 10.9283C9.14676 11.025 9.39978 11.1835 9.60828 11.392C9.81678 11.6005 9.97533 11.8536 10.072 12.1321C10.1687 12.4107 10.2011 12.7075 10.1666 13.0003V14.667C10.1658 14.7993 10.1128 14.926 10.0192 15.0196C9.92565 15.1132 9.79898 15.1661 9.66665 15.167ZM6.83331 14.167H9.16665V13.0003C9.16665 12.1603 8.83998 11.8337 7.99998 11.8337C7.15998 11.8337 6.83331 12.1603 6.83331 13.0003V14.167Z" fill="#202532"/>
</svg>
