<svg width="60" height="18" viewBox="0 0 60 18" fill="none" xmlns="http://www.w3.org/2000/svg">
<path d="M10.072 5.992V1.352C8.792 0.967999 7.8 0.84 6.232 0.807999C2.424 0.807999 0.344 3.496 0.344 5.832C0.344 7.528 0.664 7.976 1.272 8.968C2.008 9.96 3.32 10.408 4.088 10.632C4.824 10.888 6.616 10.984 6.616 12.104C6.616 13 5.208 13.192 4.504 13.192C3.192 13.192 1.592 12.392 0.6 11.752L0.536 16.36C2.04 17.16 3.32 17.16 5.048 17.16C6.936 17.16 8.632 16.584 9.592 15.528C10.616 14.312 11.32 12.648 10.808 10.728C10.392 9.064 9.4 8.008 8.088 7.464C6.392 6.728 4.888 6.696 4.888 5.736C4.888 4.872 6.072 4.808 7.192 4.872C8.216 5 9.144 5.352 10.072 5.992ZM21.024 17.16C25.792 17.16 29.504 13.416 29.504 9.032C29.504 4.648 25.664 0.84 21.024 0.84C16.352 0.84 12.512 4.552 12.512 9.032C12.512 13.384 16.096 17.16 21.024 17.16ZM20.992 13.032C18.912 13.032 17.248 11.24 17.248 9C17.248 6.76 18.976 5 20.992 5C23.04 5 24.768 6.76 24.768 9C24.768 11.24 23.04 13.032 20.992 13.032ZM47.8233 9C47.8233 6.984 49.3273 5.48 51.0873 5.48C52.8473 5.48 54.3513 6.984 54.3513 9V17H59.3113V9.32C59.3113 4.84 56.3353 0.84 50.8633 0.84C48.6233 0.84 46.7353 1.704 45.3593 3.08C43.9193 1.704 41.9353 0.84 39.3753 0.84C34.5753 0.84 31.3753 4.84 31.3753 9.32V17H36.3353V9C36.3353 6.984 37.8393 5.48 39.5993 5.48C41.3593 5.48 42.8633 6.984 42.8633 9V17H47.8233V9Z" fill="#E41A15"/>
</svg>
