<svg width="16" height="16" viewBox="0 0 16 16" fill="none" xmlns="http://www.w3.org/2000/svg">
<path d="M11.746 6.41113H8.24597C8.11336 6.41113 7.98619 6.35845 7.89242 6.26469C7.79865 6.17092 7.74597 6.04374 7.74597 5.91113C7.74597 5.77852 7.79865 5.65135 7.89242 5.55758C7.98619 5.46381 8.11336 5.41113 8.24597 5.41113H11.746C11.8786 5.41113 12.0058 5.46381 12.0995 5.55758C12.1933 5.65135 12.246 5.77852 12.246 5.91113C12.246 6.04374 12.1933 6.17092 12.0995 6.26469C12.0058 6.35845 11.8786 6.41113 11.746 6.41113Z" fill="#202532"/>
<path d="M4.74696 6.91918C4.61446 6.91889 4.4875 6.86602 4.39396 6.77218L3.89396 6.27218C3.80288 6.17788 3.75248 6.05158 3.75362 5.92048C3.75476 5.78939 3.80734 5.66398 3.90005 5.57127C3.99275 5.47857 4.11816 5.42599 4.24926 5.42485C4.38035 5.42371 4.50666 5.47411 4.60096 5.56518L4.74696 5.71118L5.89196 4.56418C5.98626 4.47311 6.11256 4.42271 6.24366 4.42385C6.37476 4.42499 6.50016 4.47757 6.59287 4.57027C6.68557 4.66298 6.73815 4.78839 6.73929 4.91948C6.74043 5.05058 6.69004 5.17688 6.59896 5.27118L5.09896 6.77118C5.00582 6.86514 4.87925 6.91836 4.74696 6.91918Z" fill="#202532"/>
<path d="M11.746 11.0781H8.24597C8.11336 11.0781 7.98619 11.0254 7.89242 10.9317C7.79865 10.8379 7.74597 10.7107 7.74597 10.5781C7.74597 10.4455 7.79865 10.3183 7.89242 10.2246C7.98619 10.1308 8.11336 10.0781 8.24597 10.0781H11.746C11.8786 10.0781 12.0058 10.1308 12.0995 10.2246C12.1933 10.3183 12.246 10.4455 12.246 10.5781C12.246 10.7107 12.1933 10.8379 12.0995 10.9317C12.0058 11.0254 11.8786 11.0781 11.746 11.0781Z" fill="#202532"/>
<path d="M4.74696 11.5862C4.61446 11.5859 4.4875 11.533 4.39396 11.4392L3.89396 10.9392C3.80288 10.8449 3.75248 10.7186 3.75362 10.5875C3.75476 10.4564 3.80734 10.331 3.90005 10.2383C3.99275 10.1456 4.11816 10.093 4.24926 10.0918C4.38035 10.0907 4.50666 10.1411 4.60096 10.2322L4.74696 10.3782L5.89196 9.23118C5.98626 9.1401 6.11256 9.0897 6.24366 9.09084C6.37476 9.09198 6.50016 9.14456 6.59287 9.23727C6.68557 9.32997 6.73815 9.45538 6.73929 9.58648C6.74043 9.71757 6.69004 9.84388 6.59896 9.93818L5.09896 11.4382C5.00582 11.5321 4.87925 11.5854 4.74696 11.5862Z" fill="#202532"/>
<path d="M9.99899 15.1651H5.99899C2.37799 15.1651 0.830994 13.6181 0.830994 9.99808V5.99808C0.830994 2.37708 2.37799 0.830078 5.99799 0.830078H9.99799C13.618 0.830078 15.165 2.37708 15.165 5.99708V9.99708C15.166 13.6181 13.619 15.1651 9.99899 15.1651ZM5.99799 1.83008C2.92499 1.83008 1.83099 2.92408 1.83099 5.99708V9.99708C1.83099 13.0711 2.92399 14.1641 5.99799 14.1641H9.99799C13.072 14.1641 14.165 13.0711 14.165 9.99708V5.99708C14.166 2.92408 13.072 1.83008 9.99899 1.83008H5.99799Z" fill="#202532"/>
</svg>
