<svg width="16" height="16" viewBox="0 0 16 16" fill="none" xmlns="http://www.w3.org/2000/svg">
<path d="M8.00004 15.1663C6.58261 15.1663 5.19701 14.746 4.01846 13.9585C2.8399 13.1711 1.92134 12.0518 1.37891 10.7422C0.836479 9.4327 0.694555 7.99173 0.971083 6.60153C1.24761 5.21133 1.93017 3.93436 2.93245 2.93208C3.93472 1.9298 5.2117 1.24724 6.6019 0.970717C7.99209 0.694189 9.43307 0.836113 10.7426 1.37854C12.0521 1.92097 13.1714 2.83954 13.9589 4.01809C14.7464 5.19664 15.1667 6.58224 15.1667 7.99968C15.1651 9.89991 14.4096 11.7219 13.0659 13.0655C11.7222 14.4092 9.90027 15.1648 8.00004 15.1663ZM8.00004 1.83301C6.78039 1.83301 5.58813 2.19468 4.57403 2.87228C3.55992 3.54988 2.76953 4.51299 2.30279 5.6398C1.83605 6.76661 1.71393 8.00652 1.95187 9.20273C2.18981 10.399 2.77713 11.4977 3.63955 12.3602C4.50198 13.2226 5.60077 13.8099 6.79699 14.0479C7.9932 14.2858 9.23311 14.1637 10.3599 13.6969C11.4867 13.2302 12.4498 12.4398 13.1274 11.4257C13.805 10.4116 14.1667 9.21933 14.1667 7.99968C14.1648 6.36477 13.5144 4.79738 12.3584 3.64133C11.2023 2.48528 9.63495 1.83495 8.00004 1.83301Z" fill="white"/>
<path d="M7.054 10.3876C6.98836 10.3876 6.92336 10.3747 6.86273 10.3495C6.80211 10.3243 6.74703 10.2875 6.70067 10.241L4.814 8.35365C4.72568 8.25886 4.6776 8.1335 4.67989 8.00396C4.68217 7.87443 4.73465 7.75084 4.82626 7.65923C4.91786 7.56762 5.04146 7.51515 5.17099 7.51286C5.30052 7.51058 5.42589 7.55866 5.52067 7.64698L7.054 9.18031L10.4807 5.75431C10.5755 5.66599 10.7008 5.61791 10.8304 5.6202C10.9599 5.62248 11.0835 5.67496 11.1751 5.76656C11.2667 5.85817 11.3192 5.98176 11.3215 6.1113C11.3237 6.24083 11.2757 6.3662 11.1873 6.46098L7.40734 10.241C7.36097 10.2875 7.3059 10.3243 7.24527 10.3495C7.18465 10.3747 7.11965 10.3876 7.054 10.3876Z" fill="white"/>
</svg>
