<svg width="12" height="14" viewBox="0 0 12 14" fill="none" xmlns="http://www.w3.org/2000/svg">
<path d="M2.368 14C2.01584 14.0012 1.67671 13.8669 1.42091 13.6249C1.1651 13.3829 1.01224 13.0517 0.994 12.7L0.617 2.739H0.507C0.372535 2.739 0.243578 2.68558 0.148497 2.5905C0.0534159 2.49542 0 2.36646 0 2.232C0 2.09754 0.0534159 1.96858 0.148497 1.8735C0.243578 1.77842 0.372535 1.725 0.507 1.725H3.13L3.33 1.049C3.42826 0.749189 3.61715 0.487264 3.8706 0.29937C4.12405 0.111475 4.42957 0.00687396 4.745 0L6.61 0C6.92577 0.00646391 7.23174 0.110876 7.48559 0.298799C7.73943 0.486723 7.92863 0.748872 8.027 1.049L8.227 1.725H10.851C10.9855 1.725 11.1144 1.77842 11.2095 1.8735C11.3046 1.96858 11.358 2.09754 11.358 2.232C11.358 2.36646 11.3046 2.49542 11.2095 2.5905C11.1144 2.68558 10.9855 2.739 10.851 2.739H10.74L10.361 12.7C10.3428 13.0517 10.1899 13.3829 9.93409 13.6249C9.67829 13.8669 9.33916 14.0012 8.987 14H2.368ZM2.027 12.664C2.03303 12.7506 2.07149 12.8317 2.13469 12.8912C2.19789 12.9507 2.2812 12.9842 2.368 12.985H8.987C9.07373 12.984 9.15691 12.9504 9.22006 12.891C9.28322 12.8315 9.32174 12.7505 9.328 12.664L9.702 2.739H1.652L2.027 12.664ZM7.148 1.724L7.033 1.324C6.99856 1.23767 6.94073 1.16264 6.86601 1.10735C6.79129 1.05206 6.70263 1.0187 6.61 1.011H4.745C4.65219 1.01852 4.56333 1.0518 4.48841 1.1071C4.4135 1.1624 4.35552 1.23752 4.321 1.324L4.206 1.724H7.148ZM7.733 11.869C7.6246 11.8664 7.52166 11.8209 7.4467 11.7426C7.37173 11.6642 7.33085 11.5594 7.333 11.451L7.54 4.551C7.54734 4.4443 7.59569 4.34457 7.67493 4.27273C7.75416 4.20088 7.85812 4.16249 7.96503 4.16559C8.07194 4.16869 8.17351 4.21305 8.24844 4.28937C8.32337 4.36569 8.36586 4.46805 8.367 4.575L8.16 11.475C8.1561 11.5814 8.11088 11.682 8.03395 11.7556C7.95702 11.8292 7.85444 11.8699 7.748 11.869H7.733ZM3.195 11.476L2.989 4.576C2.98582 4.46647 3.02628 4.36015 3.10148 4.28045C3.17668 4.20075 3.28047 4.15418 3.39 4.151C3.49953 4.14782 3.60585 4.18828 3.68555 4.26348C3.76525 4.33868 3.81182 4.44247 3.815 4.552L4.022 11.452C4.02319 11.5057 4.01379 11.5591 3.99434 11.6092C3.97488 11.6593 3.94575 11.7051 3.9086 11.7439C3.87145 11.7827 3.82702 11.8138 3.77785 11.8354C3.72867 11.8571 3.67571 11.8688 3.622 11.87H3.607C3.50063 11.8706 3.39819 11.8298 3.32132 11.7563C3.24444 11.6828 3.19915 11.5823 3.195 11.476ZM5.263 11.464V4.564C5.26822 4.45785 5.31407 4.35777 5.39104 4.28449C5.46801 4.21121 5.57022 4.17034 5.6765 4.17034C5.78278 4.17034 5.88499 4.21121 5.96196 4.28449C6.03893 4.35777 6.08478 4.45785 6.09 4.564V11.464C6.08478 11.5701 6.03893 11.6702 5.96196 11.7435C5.88499 11.8168 5.78278 11.8577 5.6765 11.8577C5.57022 11.8577 5.46801 11.8168 5.39104 11.7435C5.31407 11.6702 5.26822 11.5701 5.263 11.464Z" fill="#03384E"/>
</svg>
