<svg width="16" height="16" viewBox="0 0 16 16" fill="none" xmlns="http://www.w3.org/2000/svg">
<path d="M8.66601 9.83301H1.33301C1.2004 9.83301 1.07322 9.78033 0.979454 9.68656C0.885686 9.59279 0.833008 9.46562 0.833008 9.33301V4.00001C0.833538 3.16023 1.16737 2.355 1.76119 1.76119C2.355 1.16737 3.16023 0.833538 4.00001 0.833008L10 0.833008C10.1326 0.833008 10.2598 0.885686 10.3536 0.979454C10.4473 1.07322 10.5 1.2004 10.5 1.33301V8.00001C10.5001 8.24084 10.4528 8.47934 10.3607 8.70185C10.2685 8.92437 10.1334 9.12653 9.96307 9.29678C9.79273 9.46703 9.59049 9.60202 9.36793 9.69403C9.14536 9.78605 8.90684 9.83327 8.66601 9.83301ZM1.83301 8.83301H8.66601C8.88693 8.83301 9.09881 8.74525 9.25503 8.58903C9.41125 8.43281 9.49901 8.22093 9.49901 8.00001V1.83301H3.99901C3.42478 1.83433 2.87447 2.06309 2.46852 2.46923C2.06257 2.87536 1.83406 3.42578 1.83301 4.00001V8.83301Z" fill="#202532"/>
<path d="M12.666 13.833H11.999C11.8664 13.833 11.7392 13.7803 11.6455 13.6866C11.5517 13.5928 11.499 13.4656 11.499 13.333C11.499 13.1121 11.4112 12.9002 11.255 12.744C11.0988 12.5878 10.8869 12.5 10.666 12.5C10.4451 12.5 10.2332 12.5878 10.077 12.744C9.92077 12.9002 9.83301 13.1121 9.83301 13.333C9.83301 13.4656 9.78033 13.5928 9.68656 13.6866C9.59279 13.7803 9.46562 13.833 9.33301 13.833H6.66601C6.5334 13.833 6.40622 13.7803 6.31245 13.6866C6.21869 13.5928 6.16601 13.4656 6.16601 13.333C6.16601 13.1119 6.07819 12.8999 5.92188 12.7436C5.76557 12.5873 5.55357 12.4995 5.33251 12.4995C5.11145 12.4995 4.89945 12.5873 4.74313 12.7436C4.58682 12.8999 4.49901 13.1119 4.49901 13.333C4.49901 13.4656 4.44633 13.5928 4.35256 13.6866C4.25879 13.7803 4.13162 13.833 3.99901 13.833H3.33301C2.66997 13.833 2.03408 13.5696 1.56524 13.1008C1.0964 12.6319 0.833008 11.996 0.833008 11.333L0.833008 9.33301C0.833008 9.2004 0.885686 9.07322 0.979454 8.97945C1.07322 8.88569 1.2004 8.83301 1.33301 8.83301H8.66601C8.7754 8.83301 8.88372 8.81146 8.98478 8.7696C9.08585 8.72774 9.17768 8.66638 9.25503 8.58903C9.33238 8.51168 9.39374 8.41985 9.4356 8.31878C9.47746 8.21772 9.49901 8.1094 9.49901 8.00001V3.33301C9.49901 3.2004 9.55169 3.07322 9.64545 2.97945C9.73922 2.88569 9.8664 2.83301 9.99901 2.83301H11.226C11.5498 2.83298 11.8677 2.91876 12.1476 3.08159C12.4274 3.24443 12.6591 3.47851 12.819 3.76001L13.959 5.75301C14.0017 5.82943 14.024 5.91549 14.024 6.00301C14.024 6.09052 14.0017 6.17659 13.959 6.25301C13.9147 6.32846 13.8515 6.39097 13.7755 6.43432C13.6995 6.47766 13.6135 6.50031 13.526 6.50001H12.666C12.644 6.49974 12.6222 6.50388 12.6018 6.51217C12.5814 6.52047 12.5629 6.53276 12.5473 6.54832C12.5318 6.56388 12.5195 6.5824 12.5112 6.60278C12.5029 6.62317 12.4987 6.645 12.499 6.66701V8.66701C12.4989 8.68893 12.5031 8.71066 12.5115 8.73092C12.5198 8.75119 12.5321 8.76959 12.5477 8.78504C12.5632 8.8005 12.5817 8.8127 12.602 8.82093C12.6223 8.82917 12.6441 8.83327 12.666 8.83301H14.666C14.7986 8.83301 14.9258 8.88569 15.0196 8.97945C15.1133 9.07322 15.166 9.2004 15.166 9.33301V11.333C15.166 11.996 14.9026 12.6319 14.4338 13.1008C13.9649 13.5696 13.329 13.833 12.666 13.833ZM12.433 12.833H12.666C13.0638 12.833 13.4454 12.675 13.7267 12.3937C14.008 12.1124 14.166 11.7308 14.166 11.333V9.83301H12.666C12.3569 9.83169 12.0608 9.70832 11.8423 9.48975C11.6237 9.27118 11.5003 8.97511 11.499 8.66601V6.66601C11.4993 6.35658 11.6223 6.0599 11.8411 5.84111C12.0599 5.62231 12.3566 5.49927 12.666 5.49901L11.953 4.25301C11.8797 4.12504 11.7738 4.01876 11.6461 3.94499C11.5184 3.87122 11.3735 3.83258 11.226 3.83301H10.5V8.00001C10.5001 8.24084 10.4528 8.47934 10.3607 8.70185C10.2685 8.92437 10.1334 9.12653 9.96307 9.29678C9.79273 9.46703 9.59049 9.60202 9.36793 9.69403C9.14536 9.78605 8.90684 9.83327 8.66601 9.83301H1.83301V11.333C1.83301 11.7308 1.99104 12.1124 2.27235 12.3937C2.55365 12.675 2.93518 12.833 3.33301 12.833H3.56601C3.67557 12.449 3.90727 12.1112 4.22601 11.8707C4.54476 11.6301 4.9332 11.5 5.33251 11.5C5.73182 11.5 6.12026 11.6301 6.439 11.8707C6.75775 12.1112 6.98945 12.449 7.09901 12.833H8.90601C9.01483 12.4492 9.24591 12.1113 9.56419 11.8707C9.88246 11.6301 10.2705 11.5 10.6695 11.5C11.0685 11.5 11.4566 11.6301 11.7748 11.8707C12.0931 12.1113 12.3242 12.4492 12.433 12.833Z" fill="#202532"/>
<path d="M5.33302 15.1669C4.87818 15.1669 4.43961 14.9977 4.10262 14.6922C3.76564 14.3868 3.55434 13.9669 3.50983 13.5142C3.46533 13.0615 3.5908 12.6085 3.86184 12.2432C4.13287 11.878 4.5301 11.6266 4.97623 11.538C5.42235 11.4494 5.88548 11.53 6.27552 11.764C6.66555 11.998 6.95459 12.3687 7.08642 12.804C7.21824 13.2393 7.18341 13.7081 6.98871 14.1192C6.794 14.5302 6.45335 14.8541 6.03302 15.0279C5.81105 15.1197 5.57321 15.1669 5.33302 15.1669ZM5.33302 12.4999C5.1403 12.4999 4.95354 12.5667 4.80456 12.689C4.65558 12.8112 4.5536 12.9814 4.516 13.1704C4.47839 13.3594 4.50749 13.5556 4.59833 13.7256C4.68917 13.8955 4.83613 14.0288 5.01418 14.1025C5.19222 14.1763 5.39034 14.186 5.57476 14.1301C5.75918 14.0741 5.91851 13.956 6.02558 13.7958C6.13266 13.6355 6.18086 13.4431 6.16198 13.2513C6.14309 13.0595 6.05829 12.8802 5.92202 12.7439C5.76581 12.5877 5.55395 12.4999 5.33302 12.4999Z" fill="#202532"/>
<path d="M10.666 15.1669C10.2111 15.1669 9.77256 14.9977 9.43557 14.6922C9.09858 14.3868 8.88729 13.9669 8.84278 13.5142C8.79827 13.0615 8.92375 12.6085 9.19478 12.2432C9.46582 11.878 9.86304 11.6266 10.3092 11.538C10.7553 11.4494 11.2184 11.53 11.6085 11.764C11.9985 11.998 12.2875 12.3687 12.4194 12.804C12.5512 13.2393 12.5164 13.7081 12.3217 14.1192C12.127 14.5302 11.7863 14.8541 11.366 15.0279C11.144 15.1197 10.9062 15.1669 10.666 15.1669ZM10.666 12.4999C10.4733 12.4999 10.2865 12.5667 10.1375 12.689C9.98853 12.8112 9.88655 12.9814 9.84894 13.1704C9.81134 13.3594 9.84043 13.5556 9.93127 13.7256C10.0221 13.8955 10.1691 14.0288 10.3471 14.1025C10.5252 14.1763 10.7233 14.186 10.9077 14.1301C11.0921 14.0741 11.2515 13.956 11.3585 13.7958C11.4656 13.6355 11.5138 13.4431 11.4949 13.2513C11.476 13.0595 11.3912 12.8802 11.255 12.7439C11.0988 12.5877 10.8869 12.4999 10.666 12.4999Z" fill="#202532"/>
<path d="M14.667 9.83303H12.667C12.3581 9.83171 12.0622 9.70848 11.8436 9.49012C11.6251 9.27177 11.5016 8.97596 11.5 8.66703V6.66703C11.5013 6.35793 11.6247 6.06186 11.8433 5.84329C12.0618 5.62472 12.3579 5.50134 12.667 5.50003H13.527C13.6153 5.49907 13.7022 5.5221 13.7785 5.56665C13.8547 5.61121 13.9175 5.67562 13.96 5.75303L15.1 7.75303C15.1424 7.82857 15.1654 7.91343 15.167 8.00003V9.33303C15.167 9.46564 15.1143 9.59281 15.0206 9.68658C14.9268 9.78035 14.7996 9.83303 14.667 9.83303ZM12.667 6.50003C12.645 6.49976 12.6232 6.5039 12.6028 6.51219C12.5824 6.52049 12.5639 6.53278 12.5483 6.54834C12.5328 6.56391 12.5205 6.58242 12.5122 6.6028C12.5039 6.62319 12.4997 6.64502 12.5 6.66703V8.66703C12.4997 8.68903 12.5039 8.71087 12.5122 8.73125C12.5205 8.75164 12.5328 8.77015 12.5483 8.78571C12.5639 8.80127 12.5824 8.81357 12.6028 8.82186C12.6232 8.83016 12.645 8.8343 12.667 8.83403H14.167V8.13403L13.233 6.50003H12.667Z" fill="#202532"/>
</svg>
