<svg width="16" height="16" viewBox="0 0 16 16" fill="none" xmlns="http://www.w3.org/2000/svg">
<path d="M10.0465 15.3327H5.95348C2.24929 15.3327 0.666656 13.75 0.666656 10.0459V5.95284C0.666656 2.24865 2.24929 0.666016 5.95348 0.666016H10.0465C13.7507 0.666016 15.3333 2.24865 15.3333 5.95284V10.0459C15.3333 13.75 13.7507 15.3327 10.0465 15.3327ZM5.95348 1.68927C2.80867 1.68927 1.68991 2.80803 1.68991 5.95284V10.0459C1.68991 13.1907 2.80867 14.3094 5.95348 14.3094H10.0465C13.1913 14.3094 14.3101 13.1907 14.3101 10.0459V5.95284C14.3101 2.80803 13.1913 1.68927 10.0465 1.68927H5.95348Z" fill="#A8A9AD"/>
<path d="M5.18147 7.33398L10.8205 7.33398C10.922 7.33398 11.0212 7.30637 11.1056 7.25467C11.19 7.20297 11.2557 7.1295 11.2945 7.04356C11.3333 6.95763 11.3433 6.86309 11.3233 6.77192C11.3034 6.68075 11.2543 6.59706 11.1824 6.53144L8.71488 4.27208C8.52462 4.09827 8.26685 4.00065 7.9981 4.00065C7.72936 4.00065 7.47159 4.09827 7.28132 4.27208L6.34308 5.13134L4.81427 6.53144C4.74318 6.59775 4.69505 6.6818 4.67592 6.77307C4.65679 6.86433 4.6675 6.95873 4.70672 7.04444C4.74593 7.13014 4.8119 7.20334 4.89636 7.25485C4.98081 7.30636 5.08 7.33389 5.18147 7.33398Z" fill="#A8A9AD"/>
<path d="M10.8185 8.66602L5.17955 8.66602C5.07802 8.66602 4.97877 8.69363 4.89439 8.74533C4.81 8.79703 4.74427 8.8705 4.70551 8.95644C4.66675 9.04237 4.65671 9.13691 4.67666 9.22808C4.69661 9.31925 4.74566 9.40294 4.81758 9.46856L7.28512 11.7279C7.47538 11.9017 7.73315 11.9993 8.0019 11.9993C8.27064 11.9993 8.52841 11.9017 8.71868 11.7279L9.65692 10.8687L11.1857 9.46857C11.2568 9.40225 11.3049 9.3182 11.3241 9.22694C11.3432 9.13567 11.3325 9.04127 11.2933 8.95556C11.2541 8.86986 11.1881 8.79666 11.1036 8.74515C11.0192 8.69364 10.92 8.66611 10.8185 8.66602V8.66602Z" fill="#A8A9AD"/>
</svg>
